<svg width="36" height="36" viewBox="0 0 36 36" fill="none" xmlns="http://www.w3.org/2000/svg">
<path fill-rule="evenodd" clip-rule="evenodd" d="M18 33C26.2843 33 33 26.2843 33 18C33 9.71573 26.2843 3 18 3C9.71573 3 3 9.71573 3 18C3 26.2843 9.71573 33 18 33ZM18 14.6667C18.9205 14.6667 19.6667 15.4129 19.6667 16.3333V24.6667C19.6667 25.5871 18.9205 26.3333 18 26.3333C17.0795 26.3333 16.3333 25.5871 16.3333 24.6667V16.3333C16.3333 15.4129 17.0795 14.6667 18 14.6667ZM17.917 9.66667C16.9965 9.66667 16.2503 10.4129 16.2503 11.3333V11.5C16.2503 12.4205 16.9965 13.1667 17.917 13.1667H18.0837C19.0041 13.1667 19.7503 12.4205 19.7503 11.5V11.3333C19.7503 10.4129 19.0041 9.66667 18.0837 9.66667H17.917Z" fill="black"/>
</svg>
