<svg width="36" height="36" viewBox="0 0 36 36" fill="none" xmlns="http://www.w3.org/2000/svg">
<path fill-rule="evenodd" clip-rule="evenodd" d="M16.875 7.3125L13.7781 4.73178C13.5984 4.58202 13.3719 4.5 13.1379 4.5H3.5C2.39543 4.5 1.5 5.39543 1.5 6.5V26.5C1.5 27.6046 2.39543 28.5 3.5 28.5H10.1972C10.3946 28.5 10.5877 28.5584 10.7519 28.6679L14.7481 31.3321C14.9123 31.4416 15.1054 31.5 15.3028 31.5H16.875V7.3125ZM19.125 31.5H20.6972C20.8946 31.5 21.0877 31.4416 21.2519 31.3321L25.2481 28.6679C25.4123 28.5584 25.6054 28.5 25.8028 28.5H32.5C33.6046 28.5 34.5 27.6046 34.5 26.5V6.5C34.5 5.39543 33.6046 4.5 32.5 4.5H22.8621C22.6281 4.5 22.4016 4.58202 22.2219 4.73178L19.125 7.3125V31.5Z" fill="black"/>
</svg>
